<svg width="32" height="32" xmlns="http://www.w3.org/2000/svg">

 <g>
  <title>background</title>
  <rect fill="none" id="canvas_background" height="402" width="582" y="-1" x="-1"/>
 </g>
 <g>
  <title>Layer 1</title>
  <path stroke-miterlimit="10" stroke-linejoin="round" stroke-linecap="round" stroke-width="2" stroke="#7c43cb" fill="none" id="svg_1" d="m12.071174,13l-2,-9l0,0c3.8,-1.9 8.2,-1.9 12,0l0,0l-2,9" class="st0"/>
  <path stroke-miterlimit="10" stroke-linejoin="round" stroke-linecap="round" stroke-width="2" stroke="#7c43cb" fill="none" id="svg_2" d="m21.7,5.6c3.2,1.9 5.3,5.4 5.3,9.4l0,2l2,2l-13,0l-13,0l2,-2l0,-2c0,-4 2.1,-7.5 5.3,-9.4" class="st0"/>
  <path stroke-miterlimit="10" stroke-linejoin="round" stroke-linecap="round" stroke-width="2" stroke="#7c43cb" fill="none" id="svg_3" d="m7.9,19.1c-0.1,0.6 -0.2,1.3 -0.2,1.9c0,0.7 0.1,1.3 0.2,1.9c1,-0.1 2,0.3 2.5,1.3c0.5,0.9 0.4,2 -0.2,2.8c0.9,0.9 2.1,1.6 3.4,2c0.4,-0.9 1.3,-1.6 2.4,-1.6s2,0.7 2.4,1.6c1.3,-0.4 2.4,-1.1 3.4,-2c-0.6,-0.8 -0.7,-1.9 -0.2,-2.8c0.5,-0.9 1.6,-1.4 2.5,-1.3c0.1,-0.6 0.2,-1.3 0.2,-1.9c0,-0.7 -0.1,-1.3 -0.2,-1.9" class="st0"/>
  <path stroke-miterlimit="10" stroke-linejoin="round" stroke-linecap="round" stroke-width="2" stroke="#7c43cb" fill="none" id="svg_4" d="m13.8,19c-0.5,0.5 -0.8,1.2 -0.8,2c0,1.7 1.3,3 3,3s3,-1.3 3,-3c0,-0.8 -0.3,-1.5 -0.8,-2" class="st0"/>
 </g>
</svg>